# xmcd CD database file
#
# Track frame offsets:
#	151
#	29208
#	55401
#	93738
#	124145
#	157235
#	191942
#	222438
#	248163
#	276990
#
# Disc length: 4232 seconds
#
# Revision: 2
# Processed by: cddbd v1.4b41PL1 Copyright (c) Steve Scherf et al.
# Submitted via: Feurio! 1.50.2ß - http://www.feurio.com
#
DISCID=a810860a
DTITLE=Various Artist - 80'er Vol. 5
DYEAR=1900
DGENRE=
TTITLE0=16 Bit - Changing Minds (Extended Mix)
TTITLE1=16 bit - Where are you (Mix1)
TTITLE2=Raggio di Luna - Comanchero (Spezial Disco Remix)
TTITLE3=Greg Kihn Band - Jeoparty (Special Dance Mix)
TTITLE4=Dead or Alive - You spin me Round (Performance Mix)
TTITLE5=Alphaville  - Sounds like a Melody (Special long Version)
TTITLE6=Moti Special - Don't be so shy (Extended Version)
TTITLE7=O.K. - Okay (Mix Media Edit)
TTITLE8=Mc Miker G and Deejai Sven - Holiday Rap
TTITLE9=Bronski Beat - Smalltown Boy
EXTD=
EXTT0=
EXTT1=
EXTT2=
EXTT3=
EXTT4=
EXTT5=
EXTT6=
EXTT7=
EXTT8=
EXTT9=
PLAYORDER=
